<svg xmlns="http://www.w3.org/2000/svg" viewBox="0 0 13 15" width="13" height="15">
	<style>
		tspan { white-space:pre }
		.shp0 { fill: #000000 } 
	</style>
	<path id="Layer" class="shp0" d="M10.25,6.57c1.03,0 1.87,0.84 1.88,1.87v4.68c0,1.04 -0.84,1.88 -1.88,1.88h-7.5c-0.5,0 -0.98,-0.19 -1.33,-0.54c-0.35,-0.35 -0.55,-0.83 -0.55,-1.33v-4.69c0,-1.04 0.84,-1.88 1.88,-1.88v-2.81c0,-2.07 1.68,-3.75 3.75,-3.75c2.07,0 3.75,1.68 3.75,3.75zM6.99,11.11c0.29,-0.16 0.47,-0.46 0.47,-0.79c0.04,-0.36 -0.13,-0.7 -0.44,-0.89c-0.3,-0.19 -0.69,-0.19 -1,0c-0.3,0.19 -0.47,0.54 -0.44,0.89c0,0.33 0.18,0.63 0.47,0.79v1.55c0,0.26 0.21,0.47 0.47,0.47c0.26,0 0.47,-0.21 0.47,-0.47v-1.55zM8.38,6.56v-2.81c0,-1.04 -0.84,-1.88 -1.88,-1.88c-1.04,0 -1.87,0.84 -1.87,1.88v2.81z" />
</svg>