<svg xmlns="http://www.w3.org/2000/svg" viewBox="0 0 13 13" width="13" height="13">
	<style>
		tspan { white-space:pre }
		.shp0 { fill: #000000 } 
	</style>
	<path id="Layer" class="shp0" d="M12.31,10.5c-0.15,-0.5 -0.45,-0.93 -0.87,-1.24c-0.85,-0.5 -1.75,-0.89 -2.7,-1.15c-0.23,-0.07 -0.44,-0.17 -0.65,-0.28c-0.16,-0.13 -0.27,-0.31 -0.29,-0.52c-0.01,-0.1 -0.01,-0.21 0,-0.31c0.7,-1.09 1.07,-2.35 1.07,-3.64c0.1,-0.67 -0.11,-1.35 -0.59,-1.83c-0.47,-0.48 -1.15,-0.71 -1.82,-0.62c-0.68,-0.11 -1.37,0.11 -1.86,0.6c-0.49,0.49 -0.71,1.18 -0.6,1.85c0.02,1.34 0.45,2.64 1.23,3.73v0.21c-0.02,0.21 -0.13,0.39 -0.29,0.52c-0.21,0.11 -0.42,0.21 -0.65,0.28c-0.95,0.26 -1.85,0.64 -2.7,1.13c-0.42,0.32 -0.72,0.76 -0.87,1.27c-0.16,0.52 -0.23,1.07 -0.22,1.61h12.03c0.01,-0.54 -0.06,-1.09 -0.22,-1.61z" />
</svg>